<?xml version="1.0" encoding="utf-8" ?>
<svg baseProfile="full" height="272" version="1.1" width="222" xmlns="http://www.w3.org/2000/svg" xmlns:ev="http://www.w3.org/2001/xml-events" xmlns:xlink="http://www.w3.org/1999/xlink"><defs /><polygon fill="#36CFC9" points="83,0 82,1 80,1 79,2 77,2 75,4 74,4 72,6 71,6 65,12 65,13 63,15 63,16 60,19 60,20 59,21 59,22 58,23 58,24 56,26 56,27 55,28 55,29 53,31 53,32 52,33 52,34 51,35 51,36 49,38 49,40 48,41 48,42 47,43 47,44 45,46 45,47 44,48 44,49 42,51 42,52 41,53 41,54 40,55 40,56 39,57 39,58 38,59 38,60 37,61 37,62 36,63 36,64 35,65 35,66 34,67 34,68 33,69 33,70 32,71 32,72 31,73 31,74 30,75 30,76 29,77 29,78 28,79 28,80 27,81 27,83 26,84 26,85 24,87 24,88 23,89 23,90 22,91 22,94 21,95 21,97 19,99 19,101 18,102 18,104 17,105 17,106 16,107 16,109 15,110 15,112 14,113 14,114 13,115 13,116 12,117 12,120 11,121 11,124 10,125 10,126 9,127 9,131 8,132 8,133 7,134 7,137 6,138 6,142 5,143 5,147 4,148 4,150 3,151 3,155 2,156 2,163 1,164 1,176 0,177 0,182 1,183 1,201 2,202 2,206 3,207 3,210 4,211 4,213 5,214 5,218 6,219 6,221 7,222 7,224 8,225 8,228 10,230 10,232 12,234 12,235 13,236 13,238 14,239 14,240 15,241 15,242 16,243 16,244 18,246 18,247 19,248 19,249 23,253 23,254 32,263 33,263 35,265 36,265 37,266 38,266 39,267 40,267 41,268 42,268 43,269 45,269 46,270 49,270 50,271 59,271 60,270 64,270 65,269 67,269 68,268 69,268 70,267 72,267 73,266 74,266 75,265 76,265 77,264 78,264 79,263 80,263 85,258 86,258 87,257 88,257 92,253 92,252 93,251 93,250 96,247 96,246 99,243 99,242 101,240 101,239 105,235 105,234 107,232 107,231 110,228 110,227 111,226 111,225 116,220 116,219 118,217 118,216 120,214 120,213 124,209 124,208 127,205 127,204 129,202 129,201 132,198 132,197 134,195 134,194 136,192 136,191 142,185 142,184 143,183 143,182 147,178 147,177 149,175 149,174 151,172 151,171 154,168 154,167 157,164 157,163 159,161 159,160 164,155 164,154 165,153 165,152 168,149 168,148 172,144 172,143 175,140 175,139 176,138 176,137 178,135 178,134 179,133 180,133 181,132 181,130 184,127 184,126 188,122 188,121 192,117 192,116 194,114 194,113 197,110 197,109 198,108 198,107 204,101 204,99 206,97 206,96 210,92 210,91 213,88 213,87 214,86 214,85 215,84 215,83 216,82 216,81 218,79 218,77 219,76 219,74 220,73 220,70 221,69 221,62 220,61 220,56 219,55 219,54 218,53 218,51 214,47 214,46 213,45 213,44 208,39 207,39 204,36 203,36 200,33 199,33 198,32 197,32 196,31 195,31 194,30 193,30 192,29 191,29 190,28 189,28 187,26 185,26 184,25 182,25 181,24 180,24 179,23 178,23 177,22 175,22 174,21 173,21 172,20 169,20 168,19 166,19 165,18 163,18 162,17 160,17 159,16 157,16 156,15 154,15 153,14 150,14 149,13 147,13 146,12 143,12 142,11 140,11 139,10 136,10 135,9 132,9 131,8 128,8 127,7 125,7 124,6 121,6 120,5 116,5 115,4 111,4 110,3 106,3 105,2 101,2 100,1 96,1 95,0" /></svg>