<?xml version="1.0" encoding="utf-8" ?>
<svg baseProfile="full" height="461" version="1.1" width="1108" xmlns="http://www.w3.org/2000/svg" xmlns:ev="http://www.w3.org/2001/xml-events" xmlns:xlink="http://www.w3.org/1999/xlink"><defs /><polygon fill="#A4D037" points="918,0 917,1 907,1 906,2 897,2 896,3 891,3 890,4 885,4 884,5 882,5 881,6 878,6 877,7 873,7 872,8 869,8 868,9 867,9 866,10 865,10 864,11 863,11 862,12 861,12 860,13 857,13 856,14 854,14 853,15 852,15 851,16 850,16 849,17 848,17 847,18 846,18 844,20 841,20 840,21 839,21 838,22 837,22 835,24 834,24 833,25 832,25 830,27 829,27 827,29 826,29 825,30 823,30 822,31 821,31 819,33 818,33 815,36 814,36 812,38 811,38 806,43 805,43 804,44 803,44 797,50 796,50 795,51 794,51 794,52 792,54 792,55 791,56 790,56 785,61 784,61 784,62 783,63 782,63 778,67 778,68 777,69 777,70 772,75 772,76 766,82 766,83 765,84 765,85 762,88 762,89 759,92 758,92 758,93 757,94 757,95 756,96 756,97 754,99 754,100 753,101 753,102 752,103 752,104 751,105 751,106 750,107 750,108 749,109 749,110 746,113 746,114 745,115 745,119 742,122 742,123 741,124 741,126 740,127 740,129 739,130 739,131 738,132 738,134 737,135 737,138 735,140 735,143 734,144 734,146 733,147 733,149 732,150 732,154 731,155 731,156 730,157 730,160 729,161 729,164 728,165 728,169 727,170 727,171 726,172 726,174 725,175 725,181 724,182 724,183 723,184 723,193 721,195 721,196 720,197 719,197 718,198 710,198 709,197 706,197 705,196 702,196 701,195 700,195 699,194 696,194 695,193 692,193 691,192 690,192 689,193 688,192 685,192 682,189 681,189 680,188 677,188 676,187 673,187 672,186 669,186 668,185 666,185 665,184 662,184 660,182 659,182 658,181 656,181 655,180 653,180 652,179 651,179 650,178 648,178 647,177 645,177 644,176 639,176 638,175 637,175 635,173 634,173 633,172 630,172 628,170 623,170 622,169 620,169 619,168 617,168 616,167 613,167 611,165 607,165 606,164 604,164 603,163 602,163 601,162 597,162 596,161 593,161 592,160 589,160 588,159 587,159 586,158 584,158 583,157 581,157 580,156 574,156 573,155 568,155 567,154 564,154 563,153 559,153 558,152 553,152 552,151 546,151 545,150 533,150 532,149 501,149 500,150 486,150 485,151 483,151 482,152 478,152 477,153 472,153 471,154 462,154 461,155 458,155 457,156 453,156 451,158 450,158 449,159 447,159 446,160 444,160 443,161 441,161 440,162 437,162 436,163 433,163 432,164 431,164 430,165 429,165 428,166 426,166 425,167 422,167 421,168 420,168 419,169 417,169 414,172 413,172 412,173 410,173 409,174 408,174 407,175 405,175 404,176 402,176 401,177 400,177 399,178 398,178 397,179 396,179 395,180 394,180 393,181 392,181 391,182 390,182 388,184 386,184 385,185 384,185 382,187 381,187 380,188 379,188 377,190 377,191 376,192 374,192 372,194 371,194 370,195 369,195 368,196 367,196 364,199 363,199 361,201 360,201 356,205 355,205 352,208 351,208 350,209 349,209 345,213 344,213 339,218 338,218 335,221 334,221 334,222 327,229 326,229 323,232 322,232 321,233 321,234 319,236 318,236 315,239 315,240 312,243 311,243 309,245 309,247 307,249 306,249 306,250 304,252 303,252 301,254 301,255 300,256 300,257 295,262 294,262 294,263 292,265 292,266 290,268 290,270 288,272 287,272 286,273 286,274 285,275 285,276 282,279 282,280 277,285 277,287 271,293 271,294 269,296 269,297 268,298 268,299 266,301 266,302 262,306 262,307 256,313 253,313 252,312 250,312 249,311 241,311 240,310 238,310 237,309 234,309 233,308 227,308 226,307 222,307 221,306 219,306 218,305 214,305 213,304 212,304 211,303 207,303 206,302 205,302 204,301 201,301 200,300 193,300 192,299 189,299 188,298 187,298 186,297 182,297 180,295 178,295 177,294 174,294 173,293 171,293 170,292 169,292 168,291 165,291 164,290 161,290 160,289 158,289 157,288 156,288 155,287 152,287 151,286 149,286 147,284 145,284 144,283 141,283 140,282 138,282 137,281 135,281 134,280 133,280 131,278 126,278 125,277 123,277 122,276 121,276 120,275 119,275 118,274 116,274 115,273 114,273 113,272 112,272 109,269 108,269 107,268 103,268 102,267 101,267 100,266 97,266 96,265 94,265 93,264 91,264 90,263 84,263 83,262 69,262 68,261 66,261 65,262 61,262 60,263 57,263 56,264 53,264 52,265 51,265 50,266 48,266 47,267 46,267 45,268 44,268 43,269 42,269 40,271 38,271 37,272 36,272 35,273 34,273 33,274 32,274 30,276 29,276 26,279 26,280 23,283 22,283 20,285 20,286 15,291 14,291 14,292 12,294 12,295 10,297 10,298 9,299 9,302 8,303 8,305 7,306 7,307 6,308 6,309 5,310 5,311 4,312 4,314 3,315 3,316 2,317 2,321 1,322 1,326 0,327 0,343 1,344 1,350 2,351 2,353 3,354 3,355 4,356 4,358 5,359 5,363 7,365 7,367 8,368 8,369 9,370 9,371 11,373 11,374 13,376 13,377 15,379 15,380 21,386 21,387 22,388 23,388 28,393 28,394 29,394 30,395 31,395 33,397 34,397 35,398 36,398 37,399 39,399 40,400 41,400 42,401 44,401 45,402 46,402 47,403 49,403 50,404 52,404 54,406 57,406 58,407 59,407 60,408 61,408 62,409 64,409 65,410 67,410 69,412 72,412 73,413 75,413 76,414 78,414 79,415 80,415 81,416 83,416 85,418 87,418 88,419 90,419 91,420 92,420 93,421 95,421 96,422 98,422 99,423 102,423 103,424 105,424 106,425 107,425 108,426 110,426 111,427 113,427 114,428 116,428 117,429 120,429 121,430 123,430 124,431 126,431 127,432 129,432 130,433 132,433 133,434 135,434 136,435 137,435 138,436 140,436 141,437 144,437 145,438 148,438 149,439 152,439 153,440 155,440 156,441 157,441 158,442 163,442 164,443 167,443 168,444 170,444 171,445 177,445 178,446 179,446 180,447 184,447 185,448 186,448 187,449 189,449 190,450 199,450 200,451 203,451 204,452 207,452 208,453 214,453 215,454 217,454 218,455 222,455 223,456 227,456 228,457 234,457 235,458 241,458 242,459 254,459 255,460 270,460 271,459 282,459 283,458 286,458 287,457 293,457 294,456 297,456 298,455 300,455 301,454 302,454 303,453 306,453 307,452 308,452 309,451 311,451 312,450 314,450 315,449 316,449 317,448 318,448 319,447 320,447 321,446 323,446 326,443 328,443 329,442 330,442 333,439 334,439 335,438 336,438 338,436 339,436 341,434 342,434 347,429 348,429 350,427 351,427 355,423 356,423 356,422 363,415 363,414 366,411 367,411 368,410 368,409 369,408 369,407 374,402 374,401 375,400 375,399 378,396 378,395 383,390 383,389 384,388 384,386 389,381 389,380 392,377 392,376 394,374 394,372 398,368 398,367 400,365 400,364 401,363 403,363 404,362 404,360 407,357 407,356 414,349 414,348 415,347 416,347 417,346 417,345 422,340 423,340 425,338 425,337 426,336 426,335 427,334 428,334 429,333 430,333 436,327 438,327 444,321 445,321 446,320 447,320 450,317 451,317 452,316 453,316 454,315 456,315 457,314 458,314 459,313 460,313 463,310 464,310 465,309 467,309 468,308 469,308 470,307 472,307 474,305 476,305 478,303 480,303 481,302 484,302 485,301 489,301 490,300 491,300 492,299 499,299 501,297 512,297 513,296 514,297 515,296 525,296 526,297 532,297 533,298 540,298 541,299 546,299 547,300 549,300 550,301 552,301 553,302 556,302 557,303 561,303 562,304 563,304 564,305 565,305 566,306 569,306 570,307 573,307 574,308 577,308 578,309 580,309 582,311 586,311 587,312 589,312 590,313 593,313 594,314 596,314 597,315 597,316 599,316 600,317 603,317 604,318 605,318 606,319 608,319 609,320 611,320 612,321 613,321 614,322 617,322 618,323 620,323 621,324 622,324 623,325 625,325 626,326 628,326 629,327 631,327 632,328 634,328 636,330 640,330 641,331 644,331 645,332 649,332 650,333 651,333 652,334 653,334 654,335 658,335 659,336 660,336 661,337 667,337 668,338 670,338 671,339 673,339 674,340 676,340 677,341 682,341 683,342 688,342 689,343 692,343 693,344 703,344 704,345 708,345 709,346 724,346 725,347 739,347 740,346 749,346 750,345 756,345 757,344 761,344 762,343 767,343 768,342 770,342 771,341 774,341 775,340 776,340 777,339 778,339 779,338 780,338 781,337 783,337 784,336 786,336 787,335 788,335 789,334 790,334 791,333 792,333 794,331 795,331 796,330 797,330 799,328 800,328 801,327 802,327 803,326 804,326 807,323 808,323 810,321 810,320 811,319 812,319 814,317 815,317 817,315 818,315 819,314 820,314 820,312 822,310 823,310 826,307 826,306 831,301 831,300 832,299 832,298 835,295 835,294 837,292 837,291 838,290 838,289 841,286 841,285 842,284 842,283 844,281 844,280 846,278 846,277 847,276 847,275 848,274 848,273 849,272 849,271 850,270 850,269 851,268 851,267 852,266 852,263 853,262 853,261 854,260 854,258 855,257 855,256 856,255 856,253 859,250 859,246 860,245 860,242 861,241 861,240 862,239 862,235 863,234 863,231 864,230 864,229 865,228 865,227 866,226 866,223 867,222 867,220 868,219 868,214 869,213 869,210 870,209 870,205 871,204 871,200 872,199 872,196 873,195 873,193 874,192 874,188 875,187 875,186 876,185 876,183 877,182 877,181 879,179 879,178 881,176 881,175 883,173 883,172 885,170 885,169 886,168 887,168 887,167 893,161 894,161 898,157 899,157 899,156 900,155 902,155 903,154 904,154 905,153 906,153 908,151 910,151 911,150 912,150 913,149 917,149 918,148 923,148 924,147 936,147 937,148 940,148 941,149 945,149 946,150 949,150 950,151 951,151 952,152 954,152 955,153 956,153 957,154 958,154 959,155 960,155 961,156 962,156 965,159 966,159 971,164 972,164 974,166 975,166 976,167 976,168 977,169 977,170 981,174 981,175 988,182 989,182 990,183 991,183 992,184 993,184 994,185 994,186 995,186 996,187 997,187 998,188 999,188 1000,189 1002,189 1003,190 1004,190 1005,191 1006,191 1007,192 1008,192 1009,193 1012,193 1013,194 1018,194 1019,195 1022,195 1023,196 1045,196 1046,195 1049,195 1050,194 1053,194 1054,193 1058,193 1059,192 1060,192 1061,191 1062,191 1063,190 1064,190 1065,189 1067,189 1068,188 1069,188 1071,186 1072,186 1075,183 1077,183 1078,182 1079,182 1084,177 1085,177 1086,176 1086,175 1090,171 1091,171 1092,170 1092,168 1094,166 1094,165 1096,163 1096,162 1097,161 1097,160 1098,159 1098,157 1101,154 1101,152 1102,151 1102,150 1103,149 1103,147 1104,146 1104,143 1105,142 1105,141 1106,140 1106,138 1107,137 1107,117 1106,116 1106,109 1105,108 1105,104 1104,103 1104,101 1103,100 1103,99 1102,98 1102,96 1101,95 1101,93 1099,91 1099,90 1098,89 1098,88 1097,87 1097,86 1096,85 1096,84 1094,82 1094,81 1092,79 1092,77 1091,76 1090,76 1087,73 1087,72 1081,66 1081,65 1080,64 1079,64 1078,63 1078,62 1074,58 1073,58 1072,57 1071,57 1068,54 1068,53 1065,50 1064,50 1060,46 1060,45 1059,44 1057,44 1056,43 1055,43 1053,41 1052,41 1048,37 1047,37 1046,36 1045,36 1044,35 1043,35 1042,34 1041,34 1038,31 1037,31 1035,29 1034,29 1032,27 1031,27 1030,26 1029,26 1027,24 1024,24 1023,23 1022,23 1021,22 1020,22 1019,21 1018,21 1017,20 1016,20 1015,19 1013,19 1011,17 1008,17 1007,16 1006,16 1003,13 1000,13 999,12 997,12 996,11 993,11 992,10 990,10 989,9 987,9 986,8 983,8 982,7 981,7 979,5 977,5 976,4 971,4 970,3 967,3 966,4 965,3 964,3 963,2 958,2 957,1 952,1 951,0" /></svg>